<?xml version="1.0" standalone="no"?><svg xmlns="http://www.w3.org/2000/svg" viewBox="0 0 1440 320"><path fill="#1697f9" fill-opacity="1" d="M0,96L34.3,96C68.6,96,137,96,206,112C274.3,128,343,160,411,154.7C480,149,549,107,617,112C685.7,117,754,171,823,165.3C891.4,160,960,96,1029,96C1097.1,96,1166,160,1234,176C1302.9,192,1371,160,1406,144L1440,128L1440,0L1405.7,0C1371.4,0,1303,0,1234,0C1165.7,0,1097,0,1029,0C960,0,891,0,823,0C754.3,0,686,0,617,0C548.6,0,480,0,411,0C342.9,0,274,0,206,0C137.1,0,69,0,34,0L0,0Z"></path></svg>